<svg xmlns="http://www.w3.org/2000/svg" id="Conveyor-Machine" width="32.816" height="32.843" viewBox="0 0 32.816 32.843">
    <defs>
        <style>
            .cls-1{fill:#fff}
        </style>
    </defs>
    <path id="Path_8" d="M50.623 9.246A1.623 1.623 0 1 0 49 7.623a1.623 1.623 0 0 0 1.623 1.623zm0-2.164a.541.541 0 1 1-.541.541.541.541 0 0 1 .541-.541z" class="cls-1" data-name="Path 8" transform="translate(-23.217 -3.81)"/>
    <path id="Path_9" d="M19.623 9.246A1.623 1.623 0 1 0 18 7.623a1.623 1.623 0 0 0 1.623 1.623zm0-2.164a.541.541 0 1 1-.541.541.541.541 0 0 1 .541-.541z" class="cls-1" data-name="Path 9" transform="translate(-9.238 -3.81)"/>
    <path id="Path_10" d="M22.017 29.7h-.541v-1.348a1.352 1.352 0 1 0-2.7 0V29.7H5.787v-1.348a1.352 1.352 0 1 0-2.7 0V29.7h-.546a.541.541 0 0 0-.541.546v15.148a.541.541 0 0 0 .541.541h19.476a.541.541 0 0 0 .541-.541V30.246a.541.541 0 0 0-.541-.546zm-2.164-1.352a.27.27 0 1 1 .541 0V29.7h-.541zm-15.689 0a.27.27 0 1 1 .541 0V29.7h-.541zm17.312 2.434v1.082H3.082v-1.077zm0 2.164v9.738H3.082v-9.733zM3.082 44.853v-1.082h18.394v1.082z" class="cls-1" data-name="Path 10" transform="translate(-2 -13.092)"/>
    <path id="Path_11" d="M11.623 47.574a1.623 1.623 0 0 0 1.623-1.623v-4.328a1.623 1.623 0 0 0-3.246 0v4.328a1.623 1.623 0 0 0 1.623 1.623zm-.541-5.951a.541.541 0 0 1 1.082 0v4.328a.541.541 0 1 1-1.082 0z" class="cls-1" data-name="Path 11" transform="translate(-5.672 -19.059)"/>
    <path id="Path_12" d="M19.623 47.574a1.623 1.623 0 0 0 1.623-1.623v-4.328a1.623 1.623 0 0 0-3.246 0v4.328a1.623 1.623 0 0 0 1.623 1.623zm-.541-5.951a.541.541 0 0 1 1.082 0v4.328a.541.541 0 0 1-1.082 0z" class="cls-1" data-name="Path 12" transform="translate(-9.238 -19.059)"/>
    <path id="Path_13" d="M27.623 47.574a1.623 1.623 0 0 0 1.623-1.623v-4.328a1.623 1.623 0 0 0-3.246 0v4.328a1.623 1.623 0 0 0 1.623 1.623zm-.541-5.951a.541.541 0 0 1 1.082 0v4.328a.541.541 0 0 1-1.082 0z" class="cls-1" data-name="Path 13" transform="translate(-12.858 -19.059)"/>
    <path id="Path_14" d="M40.21 30.662l-2.194-3.282a.549.549 0 0 0-.456-.243V8.481a3.83 3.83 0 1 0-5.423-5.409H20.5a3.83 3.83 0 1 0-5.423 5.409v2.248h-.548a.548.548 0 0 0-.548.547v2.188a.548.548 0 0 0 .548.547h.548v1.641a.546.546 0 0 0 .161.387l1.1 1.094.775-.773-.936-.934v-1.415h3.291v1.414l-.936.934.775.773 1.1-1.094a.546.546 0 0 0 .161-.387v-1.64h.548a.548.548 0 0 0 .548-.547v-2.188a.548.548 0 0 0-.548-.547h-.548V8.541h11.508v18.6a.549.549 0 0 0-.456.243l-2.194 3.282a.549.549 0 0 0-.092.3v3.282a.548.548 0 0 0 .548.547h9.872a.548.548 0 0 0 .548-.547v-3.282a.549.549 0 0 0-.092-.304zm-5.392-27.59a2.735 2.735 0 1 1-2.742 2.735 2.738 2.738 0 0 1 2.742-2.735zm-3.463 4.375H21.28a3.771 3.771 0 0 0 0-3.282h10.075a3.771 3.771 0 0 0 0 3.282zM17.817 3.072a2.735 2.735 0 1 1-2.742 2.735 2.738 2.738 0 0 1 2.742-2.735zm2.742 9.845h-5.484v-1.094h5.484zm-4.387-2.188V9.261a3.8 3.8 0 0 0 3.291 0v1.469zm17-1.469a3.8 3.8 0 0 0 3.291 0v17.877h-3.29zm-.8 18.971h4.9l1.463 2.188h-7.828zM30.431 33.7v-2.187h8.775V33.7z" class="cls-1" data-name="Path 14" transform="translate(-7.486 -1.952)"/>
</svg>
