<svg xmlns="http://www.w3.org/2000/svg" width="32.667" height="32.667" viewBox="0 0 32.667 32.667">
    <defs>
        <style>
            .cls-1{fill:#fff}
        </style>
    </defs>
    <g id="Delivery" transform="translate(-2 -2)">
        <path id="Path_51" d="M30.2 44h-5.51a.689.689 0 0 0 0 1.378h5.51a.689.689 0 1 0 0-1.378z" class="cls-1" data-name="Path 51" transform="translate(-10.657 -19.342)"/>
        <path id="Path_52" d="M30.2 48h-5.51a.689.689 0 0 0 0 1.378h5.51a.689.689 0 0 0 0-1.378z" class="cls-1" data-name="Path 52" transform="translate(-10.657 -21.185)"/>
        <path id="Path_53" d="M30.2 40h-5.51a.689.689 0 0 0 0 1.378h5.51a.689.689 0 0 0 0-1.378z" class="cls-1" data-name="Path 53" transform="translate(-10.657 -17.5)"/>
        <path id="Path_54" d="M36.689 41.378h1.378a.689.689 0 0 0 0-1.378h-1.378a.689.689 0 0 0 0 1.378z" class="cls-1" data-name="Path 54" transform="translate(-15.84 -17.5)"/>
        <path id="Path_55" d="M36.689 45.378h1.378a.689.689 0 0 0 0-1.378h-1.378a.689.689 0 0 0 0 1.378z" class="cls-1" data-name="Path 55" transform="translate(-15.84 -19.342)"/>
        <path id="Path_56" d="M38.066 48h-1.377a.689.689 0 0 0 0 1.378h1.378a.689.689 0 0 0 0-1.378z" class="cls-1" data-name="Path 56" transform="translate(-15.84 -21.185)"/>
        <path id="Path_57" d="M34.109 25.968a1.8 1.8 0 0 0-1.621-.529V10.167v-.021a.544.544 0 0 0-.033-.163c0-.012-.008-.024-.013-.036s0-.014-.007-.02L28.62 2.3a.544.544 0 0 0-.487-.3h-19.6a.544.544 0 0 0-.487.3L4.235 9.923c0 .007 0 .014-.007.02s-.008.024-.013.036a.544.544 0 0 0-.033.163V25.438a1.881 1.881 0 0 0-.272-.027A1.906 1.906 0 0 0 2 27.317v3.267a1.888 1.888 0 0 0 2.178 1.883v.567A1.626 1.626 0 0 0 6.9 34.242a1.608 1.608 0 0 0 2.178 0 1.608 1.608 0 0 0 2.178 0 1.626 1.626 0 0 0 2.722-1.209v-.544h8.711v.544a1.626 1.626 0 0 0 2.722 1.209 1.608 1.608 0 0 0 2.178 0 1.608 1.608 0 0 0 2.178 0 1.626 1.626 0 0 0 2.722-1.209v-.567a1.888 1.888 0 0 0 2.178-1.883v-3.266a1.894 1.894 0 0 0-.557-1.349zM31.063 9.622h-9.536l-.933-6.533h7.2zm-14.908 1.089h4.356v7.622h-4.356zm3.339-7.622l.933 6.533h-4.188l.933-6.533zm-10.625 0h7.2l-.933 6.533H5.6zM3.905 31.4a.817.817 0 0 1-.817-.817v-3.266a.817.817 0 0 1 1.633 0v1.246a1.608 1.608 0 0 0-.544 1.2v1.584a.824.824 0 0 1-.272.053zm1.906 2.178a.544.544 0 0 1-.544-.544v-3.267a.544.544 0 0 1 .544-.544.53.53 0 0 1 .388.167.521.521 0 0 1 .157.378v3.267a.544.544 0 0 1-.545.543zm2.178 0a.544.544 0 0 1-.544-.544v-4.356a.544.544 0 0 1 .544-.544.53.53 0 0 1 .388.167.521.521 0 0 1 .157.378v4.356a.544.544 0 0 1-.545.543zm2.178 0a.544.544 0 0 1-.544-.544v-4.356a.544.544 0 1 1 1.089 0v4.356a.544.544 0 0 1-.545.544zm2.722-.544a.544.544 0 0 1-1.089 0v-3.267a.544.544 0 0 1 1.089 0zm1.089-1.634v-1.633a1.628 1.628 0 0 0-2.241-1.514 1.619 1.619 0 0 0-2.659-.782 1.6 1.6 0 0 0-1.089-.426 1.633 1.633 0 0 0-1.573 1.217 1.694 1.694 0 0 0-.6-.118v-.827a1.894 1.894 0 0 0-.549-1.339V10.711h9.8v8.167a.544.544 0 0 0 .544.544h5.444a.544.544 0 0 0 .544-.544v-8.167h9.8v15.276a1.9 1.9 0 0 0-.544 1.33v.828a1.719 1.719 0 0 0-.6.117 1.633 1.633 0 0 0-1.573-1.216 1.6 1.6 0 0 0-1.089.426 1.619 1.619 0 0 0-2.66.783 1.628 1.628 0 0 0-2.24 1.514V31.4zm10.344 2.178a.544.544 0 0 1-.544-.544v-3.267a.544.544 0 0 1 1.089 0v3.267a.544.544 0 0 1-.545.544zm2.178 0a.544.544 0 0 1-.544-.544v-4.356a.544.544 0 1 1 1.089 0v4.356a.544.544 0 0 1-.545.544zm2.178 0a.544.544 0 0 1-.544-.544v-4.356a.53.53 0 0 1 .167-.388.521.521 0 0 1 .378-.157.544.544 0 0 1 .544.544v4.356a.544.544 0 0 1-.545.545zm2.722-.544a.544.544 0 0 1-1.089 0v-3.267a.53.53 0 0 1 .167-.388.544.544 0 0 1 .647-.084.544.544 0 0 1 .275.472zm2.178-2.45a.817.817 0 0 1-1.089.77v-1.587a1.615 1.615 0 0 0-.544-1.217v-1.233a.817.817 0 1 1 1.633 0z" class="cls-1" data-name="Path 57"/>
    </g>
</svg>
