<svg xmlns="http://www.w3.org/2000/svg" width="50" height="40.481" viewBox="0 0 50 40.481">
    <defs>
        <style>
            .cls-1{fill-rule:evenodd}
        </style>
    </defs>
    <g id="pin" transform="translate(.001)">
        <path id="Path_39" d="M166.057 67.476a.977.977 0 1 0 .895-1.736 7.322 7.322 0 1 1 6.7 0 .977.977 0 1 0 .895 1.736 9.275 9.275 0 1 0-8.49 0zm0 0" class="cls-1" data-name="Path 39" transform="translate(-145.302 -45.075)"/>
        <path id="Path_40" d="M39.333 6.523a10.713 10.713 0 0 0-2.267.242 14.145 14.145 0 0 0-24.134 0A10.669 10.669 0 0 0 1.548 22.727l7.38 12.128h-.906a.977.977 0 0 0 0 1.953h5.286a.977.977 0 1 0 0-1.953H12.4l4.312-7.086 6.547 10.759h-2.924a.977.977 0 0 0 0 1.953h9.328a.977.977 0 0 0 0-1.953h-2.926l6.547-10.759 4.316 7.086h-.905a.977.977 0 0 0 0 1.953h5.286a.977.977 0 0 0 0-1.953h-.906l7.344-12.069a.959.959 0 0 0 .077-.126 10.668 10.668 0 0 0-9.163-16.137zm-.219 6.577c.073 0 .146-.006.219-.006a4.1 4.1 0 1 1 0 8.191 4.054 4.054 0 0 1-1.858-.443l.052-.1.091-.175.118-.238.085-.178c.038-.081.074-.163.111-.245l.077-.176c.037-.085.072-.172.107-.258l.068-.168c.038-.1.074-.194.109-.292l.051-.138c.051-.143.1-.288.145-.433l.022-.071c.038-.122.075-.245.109-.368l.043-.159c.026-.095.051-.19.074-.286l.043-.181c.021-.089.041-.178.06-.268l.039-.19q.026-.131.05-.263c.011-.064.023-.129.033-.194q.022-.132.04-.263l.027-.195.032-.268.021-.191c.009-.093.017-.187.024-.28 0-.061.01-.121.014-.182l.016-.31c0-.051.005-.1.007-.152 0-.154.008-.309.008-.464s0-.315-.009-.471v-.119a14.03 14.03 0 0 0-.023-.415v-.048zM25 1.953a12.221 12.221 0 0 1 11.544 8.252l.034.1q.031.092.06.185c.027.088.055.176.08.265 0 .014.009.029.013.043q.1.359.182.723v.006q.117.534.186 1.077l.009.074.032.289c0 .048.009.1.013.145.006.079.013.157.018.236 0 .075.008.15.012.225 0 .044 0 .089.006.133v.053c0 .13.007.261.007.39 0 .147 0 .293-.008.44a12.171 12.171 0 0 1-1.762 5.893l-.007.011-2.973 4.885L25 37.625 14.569 20.486a12.178 12.178 0 0 1-1.77-6.332c0-.13 0-.26.007-.39v-.053c0-.045 0-.089.006-.134 0-.074.007-.149.012-.224l.018-.237.013-.143q.014-.146.032-.291c0-.024.006-.048.009-.072q.07-.545.187-1.081.081-.367.183-.727c0-.009.005-.018.008-.026.027-.095.056-.188.085-.282.018-.059.038-.117.057-.176l.038-.112A12.221 12.221 0 0 1 25 1.953zM12.523 20.841a4.054 4.054 0 0 1-1.858.443 4.1 4.1 0 1 1 0-8.191c.073 0 .146 0 .219.006v.047q-.014.207-.023.415v.119c0 .156-.009.314-.009.471s0 .31.008.464c0 .051 0 .1.007.152 0 .1.009.207.016.311 0 .06.009.12.014.18a12.76 12.76 0 0 0 .045.471l.032.27.027.193q.019.133.041.266l.033.192.05.266.038.187c.019.091.04.182.061.272l.042.177c.024.1.05.195.076.292l.041.153q.054.191.113.38l.018.06q.069.219.146.435l.049.134c.036.1.072.2.111.3l.068.167a19.73 19.73 0 0 0 .185.436l.109.241.088.183q.056.116.115.231.046.092.095.183l.05.1zm-1.857 13.111L3.255 21.775a1.031 1.031 0 0 0-.072-.12 8.715 8.715 0 0 1 7.483-13.179 8.789 8.789 0 0 1 1.323.1q-.219.512-.4 1.04l-.021.063-.081.249q-.19.605-.325 1.234a5.953 5.953 0 0 0-.5-.021 6.049 6.049 0 1 0 2.859 11.379l2.051 3.37zm36.116-12.241l-7.449 12.242-4.906-8.063 2.051-3.37a6.048 6.048 0 1 0 2.855-11.38c-.167 0-.334.008-.5.021q-.136-.626-.324-1.231a14.217 14.217 0 0 0-.5-1.355 8.722 8.722 0 0 1 10.036 8.614 8.7 8.7 0 0 1-1.264 4.522zm0 0" class="cls-1" data-name="Path 40"/>
        <path id="Path_41" d="M246.977 219.9a.977.977 0 1 0 .977.977.978.978 0 0 0-.977-.977zm0 0" class="cls-1" data-name="Path 41" transform="translate(-221.977 -198.427)"/>
    </g>
</svg>
