<svg xmlns="http://www.w3.org/2000/svg" width="41.012" height="33.204" viewBox="0 0 41.012 33.204">
    <defs>
        <style>
            .cls-1{fill:#fff;fill-rule:evenodd}
        </style>
    </defs>
    <g id="pin" transform="translate(.001)">
        <path id="Path_39" d="M164.851 63.276a.743.743 0 1 0 .68-1.32 5.567 5.567 0 1 1 5.094 0 .743.743 0 1 0 .68 1.32 7.052 7.052 0 1 0-6.455 0zm0 0" class="cls-1" data-name="Path 39" transform="translate(-147.573 -46.244)"/>
        <path id="Path_40" d="M32.263 5.351a8.787 8.787 0 0 0-1.86.2 11.6 11.6 0 0 0-19.8 0 8.752 8.752 0 0 0-9.334 13.091l6.054 9.948H6.58a.8.8 0 1 0 0 1.6h4.336a.8.8 0 1 0 0-1.6h-.743l3.537-5.812 5.37 8.825h-2.4a.8.8 0 1 0 0 1.6h7.651a.8.8 0 0 0 0-1.6h-2.4l5.37-8.825 3.537 5.812H30.1a.8.8 0 1 0 0 1.6h4.336a.8.8 0 1 0 0-1.6h-.743l6.024-9.9a.787.787 0 0 0 .063-.1 8.751 8.751 0 0 0-7.517-13.239zm-.18 5.394h.18a3.359 3.359 0 1 1 0 6.719 3.325 3.325 0 0 1-1.524-.364l.043-.082c.025-.048.05-.1.074-.144l.1-.2.07-.146.091-.2c.021-.048.043-.1.064-.145l.088-.212.056-.138c.031-.079.06-.159.089-.239l.042-.114c.042-.118.082-.236.119-.355l.018-.059c.031-.1.062-.2.09-.3l.035-.13c.021-.078.042-.156.061-.234l.035-.148c.017-.073.034-.146.049-.22l.032-.156.041-.216.027-.159q.018-.108.033-.216l.023-.16.026-.22c.006-.052.012-.1.017-.157.008-.076.014-.153.02-.229 0-.05.008-.1.012-.149l.013-.254c0-.042 0-.083.006-.125 0-.127.007-.254.007-.381s0-.258-.007-.387v-.1c0-.114-.011-.228-.019-.341v-.039zM20.506 1.6a10.024 10.024 0 0 1 9.469 6.769l.025.085.049.152c.023.072.045.145.065.217 0 .012.008.023.011.035q.084.294.15.593v.005q.1.438.153.884l.008.061c.01.079.018.158.026.237 0 .04.007.079.011.119l.015.193c0 .061.007.123.01.184 0 .036 0 .073.005.109v.044c0 .107.006.214.006.32s0 .241-.007.361a9.983 9.983 0 0 1-1.441 4.832l-.006.009-2.439 4.011-6.11 10.042L11.95 16.8a9.989 9.989 0 0 1-1.45-5.191c0-.107 0-.213.006-.32v-.044c0-.037 0-.073.005-.11 0-.061.006-.122.01-.183 0-.065.01-.13.015-.195l.01-.118q.012-.12.026-.239c0-.02 0-.039.007-.059q.057-.447.153-.887.066-.3.151-.6c0-.007 0-.014.007-.022.022-.078.046-.155.07-.232.015-.048.031-.1.047-.145l.031-.092A10.024 10.024 0 0 1 20.505 1.6zM10.272 17.095a3.325 3.325 0 0 1-1.524.364 3.359 3.359 0 1 1 0-6.719h.18v.039q-.012.17-.019.341v.1c0 .128-.007.257-.007.387s0 .254.007.381c0 .042 0 .083.006.125 0 .085.008.17.013.255 0 .049.008.1.012.148.006.077.012.154.02.231l.017.156q.012.111.027.222l.022.158.034.218c.008.053.018.1.027.157l.041.218.031.154.05.223c.011.048.022.1.034.145.02.08.041.16.063.239l.033.125q.044.157.093.312l.015.049q.057.179.12.357l.04.11c.03.081.059.162.091.243a5.6 5.6 0 0 0 .056.137 7.786 7.786 0 0 0 .151.357l.09.2.072.15.094.19.078.15.041.079zM8.748 27.849L2.67 17.861a.846.846 0 0 0-.059-.1A7.148 7.148 0 0 1 8.748 6.953a7.209 7.209 0 0 1 1.085.082q-.179.42-.325.853l-.017.052-.066.2q-.156.5-.267 1.012a5.09 5.09 0 0 0-.41-.018 4.961 4.961 0 1 0 2.342 9.334l1.682 2.764zm29.625-10.04l-6.11 10.041-4.024-6.613 1.682-2.764a4.961 4.961 0 1 0 2.342-9.334c-.137 0-.274.006-.41.018q-.111-.513-.266-1.01a11.662 11.662 0 0 0-.409-1.111A7.154 7.154 0 0 1 39.41 14.1a7.134 7.134 0 0 1-1.037 3.709zm0 0" class="cls-1" data-name="Path 40"/>
        <path id="Path_41" d="M246.742 219.9a.743.743 0 1 0 .742.742.744.744 0 0 0-.742-.742zm0 0" class="cls-1" data-name="Path 41" transform="translate(-226.237 -202.222)"/>
    </g>
</svg>
