<svg xmlns="http://www.w3.org/2000/svg" id="respect" width="35.781" height="32.984" viewBox="0 0 35.781 32.984">
    <defs>
        <style>
            .cls-1{fill:#fff}
        </style>
    </defs>
    <g id="Group_4" data-name="Group 4" transform="translate(22.223 13.129)">
        <g id="Group_3" data-name="Group 3">
            <path id="Path_1" d="M330.859 221.264H320.1v-4.137a7.231 7.231 0 0 1 1.557-4.472l2.314-2.921a1.221 1.221 0 0 1 1.973 1.433l-2.478 3.731a.7.7 0 0 0 1.164.773l2.478-3.731a2.618 2.618 0 0 0-4.233-3.074l-2.314 2.921a8.635 8.635 0 0 0-1.859 5.34v4.137a.7.7 0 0 0-.7.7v5.067a.7.7 0 0 0 1.4 0v-4.368h10.758v4.368a.7.7 0 0 0 1.4 0v-5.067a.7.7 0 0 0-.701-.7z" class="cls-1" data-name="Path 1" transform="translate(-318 -207.873)"/>
        </g>
    </g>
    <g id="Group_6" data-name="Group 6" transform="translate(33.679 23.503)">
        <g id="Group_5" data-name="Group 5">
            <path id="Path_2" d="M483.113 356.527a.7.7 0 1 0 .2.494.7.7 0 0 0-.2-.494z" class="cls-1" data-name="Path 2" transform="translate(-481.92 -356.322)"/>
        </g>
    </g>
    <g id="Group_8" data-name="Group 8" transform="translate(24.602)">
        <g id="Group_7" data-name="Group 7">
            <path id="Path_3" d="M360.96 29.521l-3.187-7.675a2.983 2.983 0 1 0-5.5 2.314l3.375 7.913a.7.7 0 1 0 1.286-.548l-3.375-7.913a1.585 1.585 0 1 1 2.922-1.23l3.187 7.675a18.742 18.742 0 0 1 1.44 7.224v4.041a.7.7 0 1 0 1.4 0V37.28a20.133 20.133 0 0 0-1.548-7.759z" class="cls-1" data-name="Path 3" transform="translate(-352.032 -20.008)"/>
        </g>
    </g>
    <g id="Group_10" data-name="Group 10" transform="translate(25.648 29.42)">
        <g id="Group_9" data-name="Group 9">
            <path id="Path_4" d="M368.22 441.225l-.006-.006a.7.7 0 0 0-1.031.944l.006.006a.7.7 0 0 0 1.031-.944z" class="cls-1" data-name="Path 4" transform="translate(-367 -440.992)"/>
        </g>
    </g>
    <g id="Group_12" data-name="Group 12">
        <g id="Group_11" data-name="Group 11">
            <path id="Path_5" d="M12.859 46.529v-4.137A8.634 8.634 0 0 0 11 37.052l-2.314-2.921a2.618 2.618 0 0 0-4.233 3.074l2.477 3.732a.7.7 0 0 0 1.164-.773l-2.477-3.732A1.221 1.221 0 0 1 7.59 35l2.31 2.92a7.231 7.231 0 0 1 1.557 4.472v4.137H2.1v-9.247a18.743 18.743 0 0 1 1.44-7.224l3.187-7.675a1.585 1.585 0 1 1 2.922 1.23l-3.373 7.913a.7.7 0 1 0 1.286.548l3.375-7.913a2.983 2.983 0 1 0-5.5-2.314l-3.185 7.675A20.133 20.133 0 0 0 .7 37.282v9.247a.7.7 0 0 0-.7.7v5.067a.7.7 0 1 0 1.4 0v-4.369h10.76v4.368a.7.7 0 1 0 1.4 0v-5.067a.7.7 0 0 0-.701-.699z" class="cls-1" data-name="Path 5" transform="translate(0 -20.009)"/>
        </g>
    </g>
    <g id="Group_14" data-name="Group 14" transform="translate(8.73 29.42)">
        <g id="Group_13" data-name="Group 13">
            <path id="Path_6" d="M126.1 441.175a.7.7 0 0 0-.987.043l-.006.006a.7.7 0 0 0 1.031.944l.006-.006a.7.7 0 0 0-.044-.987z" class="cls-1" data-name="Path 6" transform="translate(-124.92 -440.992)"/>
        </g>
    </g>
    <g id="Group_16" data-name="Group 16" transform="translate(10.604 6.36)">
        <g id="Group_15" data-name="Group 15">
            <path id="Path_7" d="M161.8 111.014a4.324 4.324 0 0 0-2.772 1.027 4.324 4.324 0 0 0-2.772-1.027 4.709 4.709 0 0 0-4.514 4.873c0 1.542 1.184 3.419 3.518 5.578a32.267 32.267 0 0 0 3.375 2.708.7.7 0 0 0 .786 0 32.252 32.252 0 0 0 3.375-2.708c2.334-2.159 3.518-4.036 3.518-5.578a4.709 4.709 0 0 0-4.514-4.873zm.059 9.415a31.723 31.723 0 0 1-2.831 2.311 31.682 31.682 0 0 1-2.819-2.3c-1.979-1.831-3.069-3.448-3.069-4.552a3.315 3.315 0 0 1 3.117-3.476 2.946 2.946 0 0 1 2.243 1.064.7.7 0 0 0 1.057 0 2.946 2.946 0 0 1 2.243-1.064 3.315 3.315 0 0 1 3.117 3.476c-.002 1.101-1.087 2.712-3.059 4.541z" class="cls-1" data-name="Path 7" transform="translate(-151.741 -111.014)"/>
        </g>
    </g>
</svg>
